<svg xmlns="http://www.w3.org/2000/svg" viewBox="0 0 1000 620" width="260" height="161">
  <g fill="none" stroke-width="16" stroke-linecap="round">
    <!-- left fan (top) -->
    <path d="M90 260 L90 130 C230 130, 330 190, 480 255" stroke="#C0139B"/>
    <path d="M220 260 L220 70  C320 70,  400 150, 480 255" stroke="#D6127A"/>
    <path d="M340 260 L340 40  C400 40,  450 130, 480 255" stroke="#5B8DEF"/>
    <!-- right fan (top) -->
    <path d="M910 260 L910 130 C770 130, 670 190, 520 255" stroke="#F2C230"/>
    <path d="M780 260 L780 70  C680 70,  600 150, 520 255" stroke="#39B24A"/>
    <path d="M660 260 L660 40  C600 40,  550 130, 520 255" stroke="#EC0F5A"/>
    <!-- left fan (bottom, mirrored) -->
    <path d="M90 360 L90 490 C230 490, 330 430, 480 365" stroke="#C0139B"/>
    <path d="M220 360 L220 550 C320 550, 400 470, 480 365" stroke="#D6127A"/>
    <path d="M340 360 L340 580 C400 580, 450 490, 480 365" stroke="#5B8DEF"/>
    <!-- right fan (bottom, mirrored) -->
    <path d="M910 360 L910 490 C770 490, 670 430, 520 365" stroke="#F2C230"/>
    <path d="M780 360 L780 550 C680 550, 600 470, 520 365" stroke="#39B24A"/>
    <path d="M660 360 L660 580 C600 580, 550 490, 520 365" stroke="#EC0F5A"/>
  </g>
  <text x="500" y="315" text-anchor="middle" font-family="Poppins, Arial, sans-serif" font-weight="800" font-size="82" fill="#111" letter-spacing="2">SINERGIA</text>
  <text x="500" y="358" text-anchor="middle" font-family="Poppins, Arial, sans-serif" font-weight="700" font-size="30" fill="#111" letter-spacing="3">EXPERIENCIA EDUCATIVA</text>
</svg>
